<svg version="1.1"
   width="100" height="100"
   xmlns="http://www.w3.org/2000/svg"
   viewBox="0 0 100 100"
   style="
      stroke: var(--tchmi-ba-global-icon-color, black);
      fill: var(--tchmi-ba-global-icon-color, black);
      stroke-width: var(--tchmi-ba-icon-stroke-width, 2px);
   ">
   <g>
    <path
         d="M 27.2 45.2 l 7.2 7.9 a 2 2.2 0 0 0 2.8 0 a 2 2.2 0 0 0 0 -3.1 l -8 -8.8 a 2 2.2 0 0 0 -2 -0.5 c -6 2.2 -12.6 0.6 -17 -4.2 l -4.4 -4.8 l 4.6 -5.1 l 4.5 4.9 c 3.8 4.2 10 4.2 13.9 -0.1 a 9.8 10.8 0 0 0 2.9 -7.6 a 9.7 10.7 0 0 0 -2.9 -7.7 l -4.4 -4.8 l 4.6 -5 l 4.4 4.8 a 16.6 18.2 0 0 1 3.9 18.7 a 2 2.2 0 0 0 0.5 2.3 l 7.8 8.6 a 2 2.2 0 0 0 2.8 -3.1 L 41.3 29.9 A 20.6 22.6 0 0 0 36.1 8 l -5.8 -6.4 a 2 2.2 0 0 0 -2.8 0 l -7.4 8.1 a 2 2.2 0 0 0 0 3.1 l 5.8 6.4 c 1.1 1.2 1.7 2.8 1.7 4.6 a 5.9 6.5 0 0 1 -1.7 4.6 a 5.8 6.4 0 0 1 -8.3 0 l -5.9 -6.4 a 2 2.2 0 0 0 -2.8 0 l -7.4 8.2 a 2 2.2 0 0 0 0 3.1 l 5.8 6.4 c 5.1 5.6 12.8 7.8 21 6" />
    <path
         d="M 84.3 92.5 c -3.9 4.3 -7.7 0.9 -8.4 0.2 l -2.2 -2.4 l 8.4 -9.3 l 2.2 2.4 c .4 0.5 4 4.6 -0.1 9.1 z M 68.8 60.1 a 2 2.2 0 0 0 -2.8 3.1 l 14.8 16.3 l -8.4 9.3 l -14.6 -16.1 a 2 2.2 0 0 0 -2.8 3.1 l 18.3 20.1 c 1.4 1.5 4 3.2 7 3.2 c 2.2 0 4.6 -0.9 6.9 -3.4 c 5.5 -6 2.4 -12.6 0.1 -15 z" />
    <path
         d="M 85.8 22.5 l -3.8 -4.2 l 8.4 -9.3 l 3.8 4.2 l -8.4 9.3 z m -31 39.2 l -8.4 -9.3 l 6.4 -7.1 l 4.2 4.6 v 0 l 4.2 4.6 z M 22.4 94.7 c -1.4 0 -2.7 -0.7 -4 -2.1 c -3.9 -4.3 -0.8 -8.5 -0.2 -9.2 l 2.2 -2.4 l 8.4 9.3 l -2.2 2.4 c 0 0 -1.9 2 -4.3 2 z m 7.9 -6 l -8.4 -9.3 l 23.2 -25.5 l 8.4 9.3 l -23.2 25.5 z M 98.4 11.7 L 91.9 4.4 c -0.7 -0.8 -2.1 -0.8 -2.8 0 L 77.8 16.8 a 2 2.2 0 0 0 0 3.1 l 1.9 2.1 l -21.3 23.4 l -4.2 -4.6 a 2 2.2 0 0 0 -2.8 0 l -36 39.6 c -2.3 2.7 -5.2 9.3 0.2 15.3 c 2 2.2 4.3 3.4 6.8 3.4 c 4 0 6.9 -3.2 7.1 -3.3 L 65.5 56.1 a 2 2.2 0 0 0 0 -3.1 l -4.2 -4.6 l 21.3 -23.4 l 1.9 2.1 a 2 2.2 0 0 0 2.8 0 L 98.4 14.7 a 2 2.2 0 0 0 0 -3 z" />
  </g>
</svg>
