<svg id="pfade" xmlns="http://www.w3.org/2000/svg" viewBox="0 0 80 80">
  <defs>
    <style>
      .cls-1 {
        fill: none;
        stroke: #000000;
        stroke-linecap: round;
        stroke-linejoin: round;
        stroke-width: 2px;
      }
    </style>
  </defs>
  <rect class="cls-1" x="18.4998" y="18.5" width="43" height="43"/>
  <g>
    <path class="cls-1" d="M38.534,44.2002a4.11,4.11,0,0,0,2.9849-.044"/>
    <path class="cls-1" d="M35.9354,38.5889a4.33656,4.33656,0,0,0-.2261.8291,4.28318,4.28318,0,0,0,.1846,2.0849"/>
    <path class="cls-1" d="M41.3558,36.043a4.15558,4.15558,0,0,0-.6655-.1797,4.27722,4.27722,0,0,0-2.0684.1777"/>
    <path class="cls-1" d="M44.0887,41.4228a3.89688,3.89688,0,0,0-.0903-2.8486"/>
    <path class="cls-1" d="M38.6219,36.041,29.8153,23.707l-3.6968,2.6397c-2.1353,1.5244-3.1367,4.9853-1.6123,7.122a4.73149,4.73149,0,0,0,2.3169,1.7256l9.1123,3.3946A4.3171,4.3171,0,0,1,38.6219,36.041Z"/>
    <path class="cls-1" d="M38.6219,36.041a4.3171,4.3171,0,0,0-2.6865,2.5479"/>
    <path class="cls-1" d="M43.9984,38.5742,56.2967,29.793l-2.6396-3.6973c-1.5249-2.1348-4.9859-3.1367-7.1211-1.6113a4.71726,4.71726,0,0,0-1.7266,2.3164L41.3558,36.043A4.30975,4.30975,0,0,1,43.9984,38.5742Z"/>
    <path class="cls-1" d="M43.9984,38.5742a4.30975,4.30975,0,0,0-2.6426-2.5312"/>
    <path class="cls-1" d="M35.8939,41.5029,23.703,50.207l2.6396,3.6973c1.5249,2.1347,4.9854,3.1367,7.1211,1.6113a4.7177,4.7177,0,0,0,1.7266-2.3164l3.3437-8.999A4.31118,4.31118,0,0,1,35.8939,41.5029Z"/>
    <path class="cls-1" d="M35.8939,41.5029a4.31118,4.31118,0,0,0,2.6401,2.6973"/>
    <path class="cls-1" d="M55.493,46.5322a4.72367,4.72367,0,0,0-2.3164-1.7256l-9.0879-3.3838a4.30266,4.30266,0,0,1-2.5698,2.7334l8.665,12.1368,3.6968-2.6387C56.0164,52.1289,57.0179,48.668,55.493,46.5322Z"/>
    <path class="cls-1" d="M41.5189,44.1562a4.30266,4.30266,0,0,0,2.5698-2.7334"/>
  </g>
</svg>
