<svg
   version="1.1"
   width="100" height="100"
   xmlns="http://www.w3.org/2000/svg"
   viewBox="0 0 100 100"
   style="
      stroke: var(--tchmi-ba-global-icon-color, black);
      fill: var(--tchmi-ba-global-icon-color, black);
      stroke-width: 2px;
   ">
   <g>
      <text
         font-weight="bold"
         font-size="50px"
         font-family="Consolas"
         x="9" y="40">
         ...
      </text>
      <path
         d="M 47.9 1.6 C 32.9 2.1 18.6 7.5 9.6 16.9 C 3.1 23.7 0.3 31.8 1.2 39.8 C 2.1 47.7 6.6 55.3 14.6 61.3 l 0.1 0 l 0.1 0.1 c 2.3 1.6 3.6 4.4 4 8.1 c 0.5 3.7 0.1 8.1 -0.7 12.2 c -0.7 4.2 -1.8 8.1 -2.8 11.1 c -0.5 1.5 -0.9 2.7 -1.2 3.5 c -0.2 0.4 0.1 -0.2 0 0 c 0 0.1 0 0 0 0 c 0 0 0 0 0 0 c 0 0 0.1 -0.2 0 0 c -0.1 1 -0.5 3.4 -0.5 3.4 c 0.1 0.1 2.5 -1.4 2.7 -1.7 l -2.7 1.7 c 0 0 2.7 -1.7 2.7 -1.7 c 0 0 0 0 0 0 c 0 0 0 0 0 0 c 0.1 -0.1 0 0 0 0 c 0 0 0 0 0 0 c 0 0 0 0 0 0 c 0 0 0 0 0 0 c 0 0 0 0 0 0 c 0 0 0 0 0 0 c 0.1 -0.1 -0.2 0.3 0 0 c 0.4 -0.6 1.1 -1.6 1.9 -2.9 c 1.8 -2.5 4.4 -6 7.8 -9.5 c 6.4 -6.7 15.3 -13.3 24.8 -13.5 v 0 l 1.3 0 C 75 71.4 94.3 59.5 98.3 42.9 C 100.3 34.7 98.1 26.4 92.7 19.6 C 87.3 12.7 78.9 7.2 68.2 4.2 C 61.6 2.2 54.7 1.4 47.9 1.6 Z m 4 2.6 c 5.3 0.1 10.5 0.9 15.6 2.4 c 10.2 2.9 18.2 8.2 23.2 14.5 c 5 6.3 6.9 13.7 5.1 21.2 c -3.6 15 -21.7 26.5 -43.7 27.2 c -11.1 -0.4 -20.9 7 -27.8 14.2 c -2.5 2.6 -4.1 4.9 -5.8 7.1 c 0.8 -2.6 1.6 -5.4 2.2 -8.7 c 0.8 -4.3 1.2 -8.9 0.7 -13 c -0.5 -3.6 -1.7 -6.9 -4.2 -9.1 l 0 0 l -1 -0.8 C 8.6 53.6 4.5 46.6 3.7 39.5 C 2.9 32.3 5.4 25 11.5 18.6 C 20.6 9.1 36.1 3.8 51.9 4.2 Z" />
   </g>
</svg>
