<svg xmlns="http://www.w3.org/2000/svg" width="2100" height="641"><path fill="#F05A29" d="M436 29c1.908 1.333 3.77 2.715 5.635 4.108 8.529 6.364 17.4 9.812 27.416 13.325C478.14 49.622 486.585 53.327 495 58l2.938 1.617c13.18 7.571 13.18 7.571 14.746 12.563L513 74q-2.25-1.216-4.5-2.437l-3.055-1.657a326 326 0 0 1-7.14-4.062C488.838 60.327 479.223 55.934 469 52l-1 1 1.434 1.363C475.107 59.882 480.129 65.771 485 72l1.768 2.257c7.18 9.204 14.237 18.476 20.732 28.18l1.492 2.227c2.186 3.327 4.218 6.634 5.961 10.215 4.827 9.84 10.797 13.807 20.081 18.974 8.6 5.017 16.257 11.888 23.966 18.147-3.711-7.83-7.477-15.156-12.715-22.11C545 128 545 128 545 126c13.076 5.291 21.98 23.898 27.938 35.813 3.424 6.53 8.695 11.25 14.062 16.187-4.63-21.892-17.248-44.063-29.091-62.81-1.043-1.688-1.986-3.435-2.909-5.19l1-3c21.673 22.275 36.309 50.557 44.875 80.188 2.98 10.24 6.87 18.35 12.933 27.056C626.51 232.96 633.272 256.12 638 278l.54 2.481c4.857 23.668 4.468 50.898-.54 74.519l-.52 2.498c-4.923 22.933-13.432 45.166-26.624 64.62-5.373 7.934-8.425 14.905-10.106 24.382l-.523 2.781A721 721 0 0 0 599 456c14.562-17.363 26.426-36.279 37.76-55.863 1.39-2.394 2.805-4.77 4.24-7.137 1.136 3.408.91 3.917-.371 7.105l-.978 2.457-1.088 2.625-1.11 2.716C634.03 416.152 630.206 424.126 626 432l-1.066 2.015c-7.531 14.141-16.177 26.569-27.27 38.145-4.864 5.185-8.18 10.369-11.414 16.652l-1.246 2.39Q583.496 494.096 582 497c22.708-16.802 39.677-38.84 54-63l1.279-2.152c5.7-9.697 10.707-19.724 15.596-29.848l1.66-3.436c3.071-6.434 5.925-12.901 8.465-19.564h2c-5.042 34.595-21.54 67.721-43 95l-1.895 2.516c-13.738 17.667-30.692 32.725-49.605 44.609-6.159 4-10.075 9.101-14.5 14.875-2.919 3.41-5.94 6.716-9 10l-2.191 2.39c-25.445 26.694-61.382 43.467-97.309 49.985-6.952 1.442-11.774 4.56-17.5 8.625-41.964 27.731-95.508 40.705-145.14 31.258-25.693-5.33-53.725-14.283-74.61-30.633-7.351-5.167-16.197-5.89-24.855-7.426C148.578 593.585 114.355 575.14 87 550l-2.55-2.332C73.925 537.593 65.403 525.493 58 513l-1.116-1.867c-12.143-20.642-20.167-44.777-22.462-68.64-1.142-11.575-3.727-18.806-10.504-28.255C10.702 395.684 3.523 370.43 1 348h2l.683 2.161C13.097 383.675 13.097 383.675 31 413l.044-2.262c1.32-61.322 1.32-61.322 10.612-89.968 2.643-8.646.848-16.175-.906-24.832-2.08-10.675-3.714-21.338-5.062-32.125l-.264-2.105Q34.696 255.856 34 250c-7.073 18.305-7.073 18.305-13 37h-1c-1.696-16.095 4.708-33.957 11.574-48.285 1.655-4.312 2.198-8.209 2.613-12.778l.249-2.353c.424-4.211.652-8.346.564-12.584-7.63 12.427-13.043 25.308-18 39l-.945 2.58c-4.644 12.82-8.122 25.89-11.391 39.113l-.965 3.873-.849 3.467C2.12 301.58 1.288 303.698 0 306c-.957-40.4 9.753-78.638 33.188-111.937 4.805-6.877 7.755-13.557 10.308-21.523C49.344 154.32 60.444 128.037 77 117c-1.27 3.34-2.704 6.4-4.504 9.484l-1.483 2.56-1.576 2.706c-3.91 6.792-7.793 13.594-11.5 20.5l-1.082 1.98c-2.529 4.76-4.283 9.619-5.855 14.77l2.238-2.527C59.698 159.269 66.327 152.933 74 147l3.063-2.504c15.294-12.468 31.844-22.78 49.277-31.973 7.321-3.934 11.935-7.697 16.785-14.398C149.088 90.105 155.405 82.504 162 75l2.305-2.645Q166.645 69.672 169 67a68 68 0 0 0-11.668 4.828l-3.209 1.676-3.31 1.746A1163.133 1163.133 0 0 0 127 88c6.686-14.194 29.747-23.24 43.327-29.344l1.902-.86a681 681 0 0 1 4.793-2.128c3.885-2.177 7.03-4.912 10.352-7.855.64-.56 1.281-1.118 1.941-1.694Q191.665 44.067 194 42c-33.099 6.594-61.252 22.968-88 43l-2-1c11.219-20.067 29.472-31.795 50-41l2.023-.91c16.151-7.092 33.756-11.944 51.227-14.278 8.15-1.37 14.7-5.23 21.885-9.183C246.096 9.415 263.685 4.447 283 5c-2.638 1.759-3.94 2.38-6.887 3.078l-2.32.57-2.48.602C258.522 12.49 246.74 16.976 235 23l1.651.028c28.622.604 58.028 4.51 85.497 12.761l2.915.868c1.738.533 3.468 1.093 5.185 1.69 7.366 2.295 14.072 1.096 21.542-.04 3.797-.528 7.61-.841 11.429-1.159l2.314-.196q3.483-.291 6.967-.577l4.84-.406q5.83-.49 11.66-.969l-2.922-.978a3164 3164 0 0 1-10.695-3.612q-2.316-.783-4.636-1.56-3.327-1.115-6.65-2.248l-2.105-.698c-4.878-1.676-4.878-1.676-5.992-3.904 7.422.518 14.422 1.852 21.625 3.688l3.165.795c7.578 1.961 14.817 4.377 22.065 7.318 5.394 2.057 10.225 2.333 15.957 2.261l2.1-.013q2.544-.02 5.088-.049c-28.234-16.988-58.438-27.833-91-33V1c32.266-7.282 74.209 11.583 101 28M204 43l-1.73 1.367c-3.09 2.427-3.09 2.427-5.27 5.633 3.572-.442 7.143-.885 10.71-1.364 18.145-2.429 35.95-3.784 54.22-2.003l3.511.333q3.334.335 6.657.761c7.64.802 12.422-.614 18.902-4.727-3.184-2.123-4.904-2.48-8.629-3.035l-3.389-.514-3.545-.514-3.462-.525c-11.362-1.695-22.424-2.599-33.907-2.597-2.13-.002-4.26-.02-6.39-.04-10.872-.05-19.15.101-27.678 7.225m179.353-2.255q-2.07.128-4.142.25A336 336 0 0 0 350 44c2.277 2.564 4.377 3.786 7.535 5.086l2.705 1.133 2.822 1.156c6.475 2.677 12.766 5.469 18.94 8.792L384 61l2-1-13-8c18.525 4.027 36.39 14.42 51.746 25.336l2.406 1.688q2.286 1.619 4.522 3.305c3.964 2.813 6.431 4.039 11.357 3.503A74 74 0 0 0 447 85l-3 5q2.5 1.073 5.004 2.133c1.853.805 3.676 1.677 5.496 2.555 3.75 1.406 6.53 1.555 10.5 1.312-4.4-6.334-9.471-11.644-15-17a627 627 0 0 1-7.508-7.578C436.335 65.136 429.994 59.366 423 54l-1.686-1.295c-12.935-9.848-21.635-12.983-37.961-11.96M418 41a78.5 78.5 0 0 0 10 7.063c17.75 11.25 33.152 27.45 46 43.937a564 564 0 0 0 5.75 7.063l1.36 1.7c2.679 3.235 4.794 5.173 8.89 6.237h4c-1.492-4.322-3.773-7.83-6.437-11.5l-1.335-1.85C478.281 82.786 469.241 72.774 460 63l-1.375-1.462C452.303 54.862 445.735 49.002 438 44l-1.8-1.176c-3.394-1.271-6.867-1.297-10.45-1.449l-2.258-.117c-1.83-.094-3.661-.177-5.492-.258m-130 7 1 2c6.947 2.237 12.693 2.531 19.375-.562L311 48l-1-2c-8.576-2.662-14.365-2.986-22 2m26.313 3.5-2.45 1.406L310 54c.818 2.195.818 2.195 3.066 2.806l2.711.78 2.998.883 3.163.906c6.834 1.974 13.373 4.014 19.81 7.073 3.044.746 4.518-.016 7.252-1.448 2.272-2.02 2.272-2.02 4-4-19.174-10.286-19.174-10.286-38.687-9.5M179.62 65.316c-2.633 2.826-5.14 5.724-7.621 8.684l-2.285 2.707c-4.15 4.998-8.166 10.102-12.153 15.23l-1.289 1.648c-2.075 2.695-3.898 5.297-5.273 8.415 3.267-.623 5.414-1.782 8.125-3.687 16.917-11.515 35.634-21.133 56.078-24.114 12.144-1.81 19.923-4.82 29.234-12.902 2.39-1.983 4.949-3.625 7.563-5.297l-1-2c-37.898-2.106-37.898-2.106-71.379 11.316m68.504-2.191-1.797 1.379A178 178 0 0 0 242 68v1c11.834.46 21.234.593 30.442-7.494A109 109 0 0 0 276 58c-3.278-2.186-4.952-2.448-8.812-2.812l-3.083-.333c-6.425.3-11.108 4.445-15.98 8.27M275 66v2q7.229.864 14.46 1.709 2.454.288 4.907.582 3.549.424 7.098.834l2.179.265c5.146.589 10.176.681 15.356.61l1-2c-23.442-12.27-23.442-12.27-45-4m75.504 1.836L349 69c3.962 2.21 7.526 2.591 12 2 3.402-1.365 3.402-1.365 6-3-6.589-4.393-10.181-4.646-16.496-.164M328 80v2l2.62.715c30.33 8.311 30.33 8.311 43.627 13.252 4.26 1.583 4.26 1.583 8.753 2.033-2.51-6.955-11.879-10.434-18.176-13.594C352.844 79.061 340.858 79.874 328 80m-62.207 3.863-2.813.338c-2.933.356-5.863.733-8.793 1.112q-2.975.364-5.95.724c-10.17 1.16-10.17 1.16-20.237 2.963v1q8.985.868 17.975 1.709 3.047.287 6.095.582c21.974 2.656 21.974 2.656 43.68-.166l2.031-.527c3.18-.859 5.453-1.754 8.219-3.598-3.828-1.914-8.582-1.752-12.82-2.162-4.036-.415-7.897-.985-11.845-1.93-5.393-1.092-10.122-.768-15.542-.045M391 86l-4 2c5.884 5.47 5.884 5.47 13 8-1.382-3.21-2.924-5.05-5.625-7.25l-1.914-1.578zM204.125 99.313l-1.469 1.513c-2.24 2.362-3.616 4.053-4.656 7.174 8.753-1.675 17.436-3.65 26.125-5.625l4.344-.984L239 99c-2.316-2.316-3.167-2.387-6.324-2.852l-2.62-.39-2.744-.383-2.685-.406c-11.411-1.913-11.411-1.913-20.502 4.344m-25 9.312-1.695 1.415c-2.86 2.441-5.33 4.832-7.43 7.96 5.684-1.795 11.297-3.774 16.875-5.875l1.983-.704c3.134-1.207 4.971-2.2 7.044-4.878 1.364-3.159 1.764-6.132 2.098-9.543-7.134 0-13.61 7.209-18.875 11.625M306 99v3l2.3.586 3.012.789 2.989.773C317 105 317 105 320 107l3.438.938C327 109 327 109 328.927 110.538c2.47 1.742 3.818 1.854 6.811 1.903l2.737.08 2.837.041c10.422.197 10.422.197 14.668 1.59L359 115l3-2c-4.627-2.343-4.627-2.343-9.273-4.646-3.506-1.72-6.957-3.458-10.32-5.444-9.648-5.312-25.991-9.118-36.407-3.91m116 1 1.207 1.61L431 112l4-1v-4c-2.36-2.038-2.36-2.038-5.375-3.75l-3.023-1.86c-2.404-1.547-2.404-1.547-4.602-1.39m-230.375 17.125-2.123.658c-9.456 3.192-16.893 11.54-21.502 20.217a91 91 0 0 0 9.563-4.32c25.626-13.254 52.865-24.638 82.312-20.993 6.332.627 9.702-1.467 14.5-5.374L277 105c-2.518-2.518-4.163-2.31-7.607-2.38-26.452.061-52.678 6.5-77.768 14.505M280 110v2c7.651.213 14.625.176 22-2l2-2q-3.374-.757-6.75-1.5l-3.797-.844c-6.853-1.302-8.676-.216-13.453 4.344m-109.9-3.414-2.327 1.004-2.605 1.114-2.793 1.234-2.852 1.258q-2.887 1.282-5.767 2.578c-2.473 1.1-4.96 2.15-7.46 3.187-8.427 3.652-13.188 7.153-17.425 15.5L128 135l1 2 1.554-.823q2.294-1.214 4.592-2.426 2.625-1.388 5.245-2.783c4.581-2.429 9.161-4.659 13.922-6.718 7.97-3.866 13.751-10.84 19.687-17.25-1.94-1.258-1.94-1.258-3.9-.414M399 107c2.97 7.396 11.577 15.357 18.813 18.625 1.383.494 2.78.955 4.187 1.375.65.23 1.3.461 1.969.7 3.438 1.143 5.601 1.334 9.031.3l-3.043-2.09-1.987-1.366q-2.17-1.49-4.344-2.98c-3.49-2.392-6.968-4.797-10.407-7.263l-1.75-1.245c-1.57-1.12-3.135-2.248-4.7-3.376-2.7-1.639-4.659-2.305-7.769-2.68m61 1q2.053 2.371 4.117 4.73C466 115 466 115 467.945 117.738 473.565 125.4 478.888 128.451 488 131c-2.775-8.169-8.796-16.865-16.547-20.8-3.803-1.163-7.457-2.2-11.453-2.2m-23 10c5.148 10.52 13.878 17.424 24 23l3 1c-1.46-4.068-3.431-7.461-5.812-11.062l-2.02-3.098c-3.29-4.31-6.604-6.985-11.793-8.59l-2.29-.734c-2.212-.636-2.212-.636-5.085-.516m-129 6c3.549 4.434 7.709 5.57 12.938 7.188l2.42.787c2.205.707 4.42 1.37 6.642 2.025l2.61.86c3.629.213 6.494-1.287 9.702-2.798l1.956-.88A421 421 0 0 0 349 129c-3.038-3.545-6.575-5.731-11.275-6.252-2.644-.08-5.268-.06-7.913.002l-2.82.033c-6.36.102-12.681.39-18.992 1.217m186-1c4.11 10.586 7.892 17.412 18.376 22.12 1.53.653 3.076 1.27 4.624 1.88-1.557-4.34-3.749-8.171-6.187-12.062l-1.096-1.854c-3.404-5.419-7.342-8.222-13.654-9.834zm-273 24c6.36-1.052 12.715-2.12 19.066-3.219 19.292-3.312 38.382-5.756 57.934-6.781-2.768-2.262-5.131-3.562-8.555-4.57l-2.613-.778-2.707-.777c-.886-.264-1.771-.529-2.684-.8-23.996-7.046-43.158-.649-60.441 16.925m150-19c3.795 4.174 8.316 7.289 12.875 10.563l2.395 1.748c5.84 4.212 11.146 7.68 18.355 8.939l2.79.516c2.518.228 4.202.017 6.585-.766a772 772 0 0 0-11.42-10.551 130 130 0 0 1-3.627-3.476C392 128.705 380.017 127.68 371 128m-214.215 3.719-1.851.895a609 609 0 0 0-3.891 1.907c-1.937.958-3.88 1.9-5.826 2.838-17.195 7.365-17.195 7.365-27.822 21.63-.262.705-.523 1.41-.791 2.138l-.791 2.185-.827 2.245q-.998 2.719-1.986 5.443c5-1.624 8.858-4.57 13.063-7.625 4.999-3.605 10.003-7.072 15.25-10.312 5.934-3.889 10.316-8.773 14.972-14.051 2.976-3.363 6.201-6.217 9.715-9.012-4.085-1.362-5.386-.147-9.215 1.719M122 130q-2.597 2.089-5.187 4.188l-2.918 2.355c-4.772 4.05-8.538 7.564-10.895 13.457l1 2c9.42-4.762 14.674-10.454 19-20zm224.313 4-3.575 1.688L340 137v1l31 2c-2.963-2.963-5.285-4.344-9-6.187l-3.187-1.606c-5.066-2.174-7.733-.473-12.5 1.793m-126.668.52-3.291 1.084-3.542 1.208-3.643 1.232C197.211 142.158 185.54 146.83 174 152l-2.23.976c-8.266 3.64-8.266 3.64-13.52 10.649-.768 2.236-.768 2.236-1.25 4.375l-.75 3.063L156 173c4.058-1.59 8.047-3.32 12.031-5.082l4.149-1.826q3.222-1.42 6.442-2.843 3.14-1.388 6.284-2.769l2.076-.912c4.342-1.89 8.72-3.61 13.163-5.252 4.605-1.74 8.2-3.501 12.042-6.566l2.934-2.324c4.394-3.702 8.684-7.5 12.879-11.426-3.64-1.214-4.765-.669-8.355.52m84.417 14.605-3.4 1.844c-6.323 3.358-6.323 3.358-11.662 8.031l3.742-.219c18.845-1.054 37.413-.779 56.258.219-3.43-3.728-7.622-5.672-12.062-8l-2.452-1.328c-2.465-1.3-4.956-2.501-7.486-3.672l-2.396-1.196c-8.071-3.338-13.4.202-20.541 4.321M435 143c2.752 4.701 5.92 7.899 10.098 11.387A69 69 0 0 1 450 159l2-1c-4.25-8.107-4.25-8.107-11-14-3.188-.797-3.188-.797-6-1m-335 1a1150 1150 0 0 0-9.354 7.645 903 903 0 0 1-4.72 3.851c-7.272 5.996-14.089 12.437-20.785 19.066a1328 1328 0 0 1-4.238 4.17C47.87 191.422 47.87 191.422 42 208l-.32 3.445A377 377 0 0 0 41 221c2.743-2.448 4.296-5.104 6.063-8.312 6.16-10.717 13.298-20.368 21.773-29.368 2.29-2.386 2.29-2.386 4.602-5.445 4.834-5.424 10.782-9.812 16.605-14.133 3.653-3.057 5.642-6.887 7.832-11.054l1.219-2.245A604 604 0 0 0 102 145zm126.5 10.125-3.09.694c-6.622 1.564-6.622 1.564-11.41 6.181-1.786 2.944-1.786 2.944-3.312 6.125l-1.614 3.195L206 173l1 2 1.914-.563c18.15-5.304 36.365-10.152 55.162-12.49 9.155-1.158 16.077-3.129 24.114-7.882a270 270 0 0 1 6.224-3.522A973 973 0 0 0 306 144v-1c-26.437-.43-53.825 5.188-79.5 11.125M531 145q.614 2.004 1.25 4l.703 2.25c2.977 7.82 6.745 13.014 12.797 18.813l2.055 2.025c4.026 3.938 8.182 7.69 12.44 11.374 2.065 1.81 4.02 3.703 5.942 5.663l1.981 2.008L570 193q1.499 1.502 3 3l2 2c-2.717-16.995-2.717-16.995-13-30l-3.11-2.512a559 559 0 0 0-9.03-7.056 833 833 0 0 1-5.516-4.291l-6.602-5.145c-2.219-1.615-4.244-2.89-6.742-3.996m-175 1c2.636 2.794 5.176 4.896 8.484 6.84l2.586 1.533 2.68 1.565q2.618 1.543 5.234 3.09l2.566 1.501c2.298 1.38 4.524 2.836 6.759 4.315 3.08 1.937 5.298 2.724 9.003 2.719 5.333.23 9.567 1.653 14.473 3.695L410 172l2-1c-6.44-5.438-12.935-10.791-19.562-16l-1.804-1.42c-4.828-3.777-7.666-5.807-13.833-6.213l-3.662-.254-3.827-.238-3.86-.262q-4.725-.318-9.452-.613m103 5 1.46 3.324 1.915 4.363.96 2.186.938 2.139.926 2.086c.801 1.902.801 1.902 1.696 4.75 1.55 3.018 3.326 3.613 6.418 4.902l2.863 1.234c2.612.94 5.09 1.558 7.824 2.016-1.525-4.869-4.324-8.11-7.625-11.875l-1.625-1.872c-6.818-8.084-6.818-8.084-15.75-13.253m49 0c1.896 4.78 3.887 9.517 5.879 14.258A92 92 0 0 1 516 171c2.438 2.133 2.438 2.133 5.375 4.188l2.96 2.167c2.569 1.908 2.569 1.908 5.665 1.645-6.234-16.584-6.234-16.584-19.805-27.04zm-99 5c5.535 5.713 11.411 11.515 18 16h2c-1.83-5.325-4.405-11.387-9.312-14.437-3.558-.745-7.071-1.195-10.688-1.563m-301 1c-4.802 1.643-8.119 3.547-10.793 7.957A124 124 0 0 0 93 176l-.653 1.967C89.5 185.424 89.5 185.424 90 193c9.221-7.384 12.706-15.11 16.336-26.073.56-1.623 1.225-3.21 1.914-4.782 1.044-2.283 1.044-2.283-.25-5.145m85.387 12.223a527 527 0 0 0-4.7 4.84l-2.416 2.47a967 967 0 0 0-4.405 4.538A342 342 0 0 1 177 186a252 252 0 0 0 15.313-5.375l2.988-1.148c5.235-2.864 7.423-7.566 9.949-12.79l1.578-3.238L208 161c-5.826 0-10.67 4.396-14.613 8.223M152 162c-15.158 9.376-27.475 17.473-38 32a3078 3078 0 0 1-3.078 4.176A2093 2093 0 0 0 103 209l1 2 1.152-1.293C116.578 197.581 130.822 188.545 145 180c3.695-2.463 4.387-4.983 5.75-9l.707-1.945c.581-1.663 1.069-3.358 1.543-5.055zm-63 7c-5.9 5.56-10.95 11.67-16 18l-2.527 3.082c-7.655 9.419-14.373 19.406-20.945 29.602a111 111 0 0 1-3.973 5.625c-10.605 15.133-3.934 40.87-1.02 57.797A486 486 0 0 0 48 300c1.642-2.463 2.725-4.52 3.848-7.219.353-.84.707-1.68 1.07-2.547l1.145-2.734c3.072-7.255 6.243-14.446 9.624-21.562l1.134-2.398c2.053-4.306 4.251-8.486 6.554-12.665 3.626-7.12 4.86-14.98 5.625-22.875l-1-3c-8.554 11.194-21 29.236-21 44l-3-1c.082-17.14 10.41-35.38 19.809-49.223 8.195-12.177 11.9-24.723 15.404-38.925C88 177 88 177 89.16 174.314c1.15-2.42 1.15-2.42-.16-5.314m94 0a105 105 0 0 0-7.055 3.297l-2.115 1.059q-2.22 1.115-4.433 2.24c-2.252 1.144-4.51 2.275-6.768 3.404q-2.155 1.085-4.309 2.172l-2.04 1.023c-6.081 2.757-6.081 2.757-10.101 7.706l-.445 2.11-.507 2.296-.477 2.38-.523 2.417c-.423 1.962-.827 3.929-1.227 5.896 12.423-4.445 21.842-14.298 30.813-23.562a2714 2714 0 0 1 3.29-3.346Q181.068 174.06 185 170zm106.438 1.875-3.495.238c-20.589 1.549-32.85 7.13-47.943 20.887l-2.758 2.46a756 756 0 0 0-4.902 4.419 395 395 0 0 1-4.649 4.148C215.202 212.277 204.852 222.151 196 233c-.44.53-.878 1.061-1.33 1.608C181.311 250.072 181.311 250.072 175 269l-.237 1.9c-1.823 14.851-2.122 29.586-2.076 44.538l.005 3.589c.031 13.82.168 27.59 1.558 41.348.11 1.107.218 2.213.33 3.353 1.07 8.75 3.918 14.91 9.607 21.647l2.38 2.824a542 542 0 0 0 9.097 10.219 178 178 0 0 1 3.712 4.203c5.297 6.212 11.042 11.949 16.821 17.706q2.604 2.6 5.2 5.206c5.696 5.7 11.415 11.294 17.603 16.467l1.98 1.681a630 630 0 0 0 6.02 5.007l2 1.681c7.125 5.852 13.385 9.11 22.625 9.818l2.493.223c2.626.221 5.253.411 7.882.59l2.508.175c22.57 1.489 45.299 1.414 67.867-.05l3.705-.238c13.921-.863 13.921-.863 26.233-6.824l1.636-1.188c5.622-4.15 10.91-8.7 16.176-13.287 2.33-1.973 4.719-3.864 7.102-5.772 5.868-4.787 11.209-9.99 16.523-15.378l2.707-2.71C444.357 397.71 458.971 380.785 462 355l.316-2.666c2.724-24.327 3.136-49.607.434-73.959-.11-1.005-.218-2.01-.33-3.045-2.71-20.88-16.137-34.916-29.974-49.767a466 466 0 0 1-4.356-4.79c-6.52-7.219-13.35-13.93-20.591-20.422a384 384 0 0 1-4.085-3.75C379.224 174.292 357.26 170.686 325 170l-2.598-.066c-11.028-.256-21.961.184-32.964.941M497 173c1.58 3.562 3.767 6.334 6.188 9.375 4.32 5.631 7.272 11.3 10.109 17.79 1.935 3.222 3.13 3.9 6.703 4.835-1.354-8.427-3.787-20.682-10.697-26.405-3.878-2.44-7.982-4.109-12.303-5.595m-50 1c.62 2.015 1.302 4.01 2 6l.531 2.191c1.4 4.495 2.653 6.347 6.844 8.72 3.476 1.557 7.021 2.86 10.625 4.089-1.455-3.348-3.298-5.544-5.879-8.11-1.134-1.13-1.134-1.13-2.29-2.285l-2.394-2.355-2.404-2.402c-3.098-3.755-3.098-3.755-7.033-5.848m-208.46 4.371-3.34.978A1556 1556 0 0 0 217 185l-3.246 1.007a341 341 0 0 0-8.629 2.868l-2.587.806c-4.673 1.697-7.01 3.375-9.347 7.823A126 126 0 0 0 191 203l-1.095 2.914a316 316 0 0 0-3.093 9.149l-1.037 3.103C181.89 229.833 181.89 229.833 181 242c2.875-2.78 5.398-5.675 7.875-8.812 9.934-12.25 20.967-24.011 32.941-34.282 2.53-2.207 4.975-4.495 7.434-6.781 5.627-5.146 11.575-9.664 17.75-14.125-3.61-1.203-4.858-.691-8.46.371M407 183c3.69 3.745 7.494 7.33 11.375 10.875 8.402 7.727 16.115 15.729 23.441 24.488l1.497 1.785q1.483 1.77 2.956 3.548c2.495 3.092 2.495 3.092 5.731 5.304-1.69-7.515-4.242-14.671-6.937-21.875l-1.018-2.774c-2.533-6.792-2.533-6.792-7.045-12.351-2.602-1.06-4.936-1.858-7.625-2.562a965 965 0 0 1-4.305-1.235l-2.108-.603c-3.422-1.046-6.678-2.455-9.946-3.9-2.29-.918-2.29-.918-6.016-.7m67 0c5.691 7.911 12 15.218 19 22-1.245-6.909-2.677-14.679-8.707-18.89-4.956-2.32-4.956-2.32-10.293-3.11m78 1c.417 2.232.858 4.456 1.32 6.68.362 1.769.72 3.54 1.038 5.317 2.15 11.983 2.15 11.983 9.275 21.6 3.748 3.804 6.682 8.187 9.773 12.528A293 293 0 0 0 577 235h1c.736-17.197.736-17.197-6.797-31.988a208 208 0 0 0-4.121-4c-2.043-1.975-3.873-4.032-5.707-6.2-2.877-3.353-5.895-6.096-9.375-8.812m30 6c1.103 5.622 2.264 11.216 3.594 16.79.415 2.26.436 4.353.468 6.648.539 6.348 5.585 10.35 9.938 14.562 2.92-5.84-.549-16.846-2-23-1.538-3.588-3.347-6.168-6-9q-1.408-1.78-2.812-3.562L583 190zm-477 2c-15.316 11.801-20.475 18.777-23 38 3.538-3.337 6.197-6.579 8.688-10.75l2.042-3.414 1.092-1.849a779 779 0 0 1 3.916-6.51q1.382-2.301 2.762-4.602l1.35-2.226 1.244-2.094 1.115-1.86c1.002-1.836 1.002-1.836.791-4.695m33 1c-9.208 6.812-17.741 14.068-26 22l-1.575 1.493a230 230 0 0 0-9 9.034c-1.37 1.416-2.813 2.76-4.257 4.098-12.169 12.828-11.25 33.62-11.412 50.336.247 3.07.941 5.266 2.244 8.039h1l.445-2.937C92.692 265.1 100.483 246.245 114 231l2.328-2.656c3.108-3.5 6.11-6.863 9.672-9.906 2.892-3.525 2.893-6.988 3-11.438l2 7c2.005-.478 2.005-.478 4-2a53.6 53.6 0 0 0 2.313-7.375l.548-2.04c.88-3.474 1.49-6.187.139-9.585m15.938 22.875-1.888 1.257c-6.54 4.556-10.996 10.505-15.363 17.118l-2.05 3.078C126.76 250.185 132.774 272.297 136 286c1.514 6.046 3.203 12.033 5 18h2l.987-1.962c6.869-13.587 14.06-26.793 22.236-39.64l1.45-2.305a329 329 0 0 1 3.495-5.37c2.868-5.118 3.793-10.994 5.082-16.66 2.997-12.637 6.775-24.847 11.127-37.077.723-1.957.723-1.957.623-3.986-10.25 0-25.618 13.155-34.062 18.875M460 204c3.215 5.037 6.837 9.633 10.625 14.25l1.773 2.18c3.175 3.898 3.175 3.898 6.602 7.57a121 121 0 0 0-1-8l-.277-2.29c-.91-4.377-2.014-6.21-5.743-8.835-5.679-3.483-5.679-3.483-11.98-4.875m67 0c2.186 7.608 2.186 7.608 5 15 2.103-3.417 2.65-6.023 2-10-1.834-2.097-3.678-3.389-6-5zm-41 15 .805 3.078 1.07 4.172.571 2.214a93 93 0 0 1 2.304 12.661c1.464 9.742 7.859 17.873 13.25 25.875 2.152-1.752 2.152-1.752 2.263-3.837C506.147 248.393 501.872 236 492 225a780 780 0 0 1-3-3.75l-2-2.25zm-23 3 .734 2.867q.51 2.004 1.016 4.008l.553 2.159c.98 3.88 1.87 7.751 2.607 11.685 1.523 7.992 2.91 14.289 8.14 20.758 2.478 3.207 4.413 6.617 6.387 10.148l1.074 1.907A1097 1097 0 0 1 486 280h1c.153-7.011-.407-13.738-1.312-20.687l-.358-3.05c-1.019-7.925-2.941-13.13-8.517-19.013-4-4.307-7.681-8.77-11.282-13.414L464 222zm59 3c-1.053 10.863-1.053 10.863 3.438 20.438 1.82 2.071 1.82 2.071 3.562 3.562h1c-.499-7.485-1.497-17.027-6.633-22.852zm65 4a704 704 0 0 0-.275 11.786c-.037 1.98-.1 3.96-.164 5.939-.11 8.6 1.116 14.8 5.439 22.275 2.04-3.059 2.32-4.157 2.633-7.676l.254-2.76.238-2.877.262-2.841c.232-2.614.426-5.229.613-7.846l.3-3.332c-.408-3.623-1.89-5.295-4.237-8.043l-2.215-2.648L588 229zm22 0q.03 6.638.153 13.275.034 2.247.043 4.494c.048 11.116 1.932 19.815 5.804 30.231.728 2.607 1.25 5.147 1.75 7.813l.672 3.457c4.085 26.362 4.886 61.35-9.035 85.214-3.528 6.862-3.171 14.119-3.2 21.641q-.034 2.172-.076 4.344c-.062 3.51-.095 7.02-.111 10.531h2c23.722-46.498 33.014-97.273 17-148-3.828-11.37-8.24-22.462-14-33zm-43 11c2.458 7.92 5.668 15.42 9 23h2c1.325-3.975 1.531-5.895-.316-9.738-3.097-4.942-6.297-9.407-10.684-13.262m-24 1c-.63 5.973-.63 5.973 2.375 10.938 2.42 2.043 2.42 2.043 4.625 3.062-1.342-7.452-1.342-7.452-5-14zm-421 1c-13.465 13.815-28.634 35.478-29.312 55.5-.06 3.555-.06 3.555 2.312 5.5l.74-1.863c6.427-16.025 13.734-31.32 21.86-46.543l1.107-2.094q1.037-1.959 2.095-3.906c.794-1.5 1.505-3.045 2.198-4.594zm-43 12c-3.226 8.267-6.313 16.26-8 25l-1 1-1-9c-2.207 3.311-3.437 6.659-4.75 10.379l-.784 2.202q-.82 2.31-1.634 4.622c-.821 2.33-1.654 4.654-2.488 6.979A452 452 0 0 0 54 308l-.957 2.946c-1.803 6.77-.022 11.445 2.832 17.679l1.184 2.754A344 344 0 0 0 60 338c2.305-2.305 2.734-3.813 3.691-6.902l.924-2.948.948-3.087.958-3.077q.882-2.827 1.755-5.658A278 278 0 0 1 70 311c-.632 7.857-2.575 14.86-4.916 22.36-2.88 9.565-2.133 15.594 1.728 24.702l1.08 2.643c1.869 4.528 3.846 8.95 6.108 13.295h1l.26-2.14q.586-4.805 1.177-9.61l.409-3.367.4-3.242.365-2.984C78 350 78 350 78.574 348.052c.607-2.922.263-5.562 0-8.532-.75-9.608-.77-19.2-.761-28.832l-.003-2.806c.002-18.016.838-35.92 2.19-53.882zm45 1c-5.871 9.77-10.951 19.854-15.75 30.188l-1.643 3.522c-8.471 15.87-8.471 15.87-8.744 32.88 1.136 2.987 2.366 5.915 3.637 8.848.43 1.017.859 2.035 1.3 3.083A928 928 0 0 0 105 341c2.14-2.14 2.593-3.308 3.508-6.133l.8-2.441.817-2.551.84-2.574Q111.99 324.153 113 321c-.61 7.197-2.175 13.533-4.258 20.45-1.266 6.057.354 10.246 3.2 15.605l1.767 3.36 1.853 3.46 1.866 3.531Q119.702 371.71 122 376h1c.22-7.176.045-14.178-.707-21.311-1.373-13.075-1.646-26.052-1.606-39.189l.001-3.28c.017-16.72.753-33.117 3.037-49.692.275-2.53.323-4.984.275-7.528zm420 6c-2.077 4.154-2.002 6.512-1 11a128 128 0 0 0 2.563 6.375l1.378 3.21L547 284h2c2.011-4.022 1.616-8.64 1-13a46.3 46.3 0 0 0-6-10zm-49 7c.082 3.355.194 6.708.313 10.063l.068 2.857c.22 5.744.971 9.962 3.619 15.08 2.288-.87 2.288-.87 3.09-3.664 1.498-5.493 1.84-10.707.91-16.336-1.886-3.228-4.074-5.677-7-8zm71 3c-.36 4.998.656 7.98 3 12.375l1.688 3.21L571 289l2-1c.349-4.898-.532-7.659-3-11.875l-1.687-2.93L567 271zm-397 1c-6.023 9.408-11.35 19.284-16.625 29.125l-1.615 2.942-1.487 2.816-1.33 2.48c-1.649 4.61-1.422 8.31.231 12.887l1.642 3.32.892 1.827a633 633 0 0 0 2.855 5.728q.924 1.882 1.845 3.766c4.003 8.142 8.237 16.15 12.592 24.109 1.21-3.628.874-6.054.563-9.875-1.785-26.371-.069-52.785 1.437-79.125zm354 2c-.192 9.695.404 19.329 1 29 3.317-4.976 5.312-10.04 6-16-1.365-4.741-3.44-8.796-6-13zm84 0-.212 1.933c-1.59 14.234-3.239 28.42-7.788 42.067-.546 6.42.481 12.383 1.875 18.625 1.607 7.52 2.82 14.956 3.633 22.602.242 2.905.242 2.905 2.492 4.773 10.94-24.214 11.633-61.772 2.395-86.57L607 274zm-478 1c-1.783 10.734-2.287 21.158-2.206 32.025.019 2.538.02 5.076.02 7.614.022 9.499.342 18.894 1.186 28.361h2l.61-2.216q1.38-4.986 2.765-9.971l.96-3.487.938-3.369.857-3.094c.87-2.863.87-2.863 2.02-5.456.977-2.766.848-4.055.162-6.876l-.609-2.633L136 303q-.721-3.295-1.437-6.594-.78-3.453-1.563-6.906c-.26-1.178-.52-2.356-.79-3.57-.254-1.122-.51-2.243-.773-3.399l-.69-3.076c-.582-2.604-.582-2.604-2.747-4.455m454 4c-.419 2.79-.419 2.79 0 6 2.375 2.876 2.375 2.876 5 5 .897-1.643.897-1.643 1-4-1.13-2.503-2.521-4.67-4-7zm-108 5 .214 1.73c.936 8.646.938 17.254.916 25.938-.005 2.563 0 5.125.007 7.687.003 9.926-.317 19.751-1.137 29.645 2.69-3.21 4.849-6.314 6.727-10.055l1.437-2.863 1.461-2.957 1.484-2.934c1.35-2.709 2.627-5.441 3.891-8.191l1.688-3.41c.53-6.089-2.572-10.84-5.313-16.152l-1.66-3.366C481.103 293.84 478.51 288.69 475 284zm88 0c-1.298 5.113-.58 8.05 1.438 12.875l1.433 3.492L566 303h2c1.542-5.838 1.008-8.668-1.937-14a214 214 0 0 0-3.063-5zM85 294c-1.188 3.733-1.114 7.275-1.098 11.172l.005 2.068c.005 2.17.018 4.34.03 6.51q.008 2.212.014 4.426.017 5.412.049 10.824c4.766-4.766 4.161-13.294 4.25-19.625-.067-5.475-.553-10.178-2.25-15.375zm447 8q-1.3 4.338-2.562 8.688l-.749 2.474c-1.706 5.886-1.706 5.886-.689 11.838l.973 2.895 1.09 2.918 1.097 2.957.84 2.23c3.51-5.264 3.182-10.68 3.188-16.812l.037-2.33c.013-5.278-.762-9.786-2.225-14.858zm-23 2a803 803 0 0 0-2.437 5.625l-1.372 3.164c-2.553 6.882-2.14 10.567.747 17.086l.88 2.086A425 425 0 0 0 509 337c1.878-3.19 2.247-5.528 2.23-9.21l-.005-3.024-.038-3.141-.001-3.117c-.03-4.938-.144-9.657-1.186-14.508zm70 0c-.182.88-.364 1.76-.55 2.668l-.763 3.52-.738 3.48c-.92 3.23-2.237 5.48-3.949 8.332.922 4.333 2.951 8.09 5 12h2c3.526-9.655 5.484-17.397 1.438-27.125-.475-.949-.95-1.897-1.438-2.875zm-17 9v6h2l1-3zm-421 10c-7.034 19.415-17.522 49.693-9 70 2.007 3.322 4.395 6.131 7 9l2.379 2.66c9.943 10.536 21.868 17.497 34.434 24.527l2.661 1.499c1.23.671 1.23.671 2.483 1.357l2.218 1.22L185 434l2-1c-.21-.592-.422-1.184-.64-1.794-3.73-10.508-7.412-21.021-10.61-31.706l-.67-2.235c-1.041-3.535-2.03-7.05-2.855-10.643-2.387-10.03-6.341-18.34-11.35-27.31a2520 2520 0 0 1-3.43-6.297q-1.13-2.077-2.265-4.15c-3.217-5.888-6.27-11.85-9.243-17.865l-1.244-2.514q-1.351-2.74-2.693-5.486zm-93 2-1.062 3.563-.598 2.003c-.984 7.046 1.961 13.82 4.222 20.372l.999 2.939Q52.77 357.441 54 361l2-1c3.36-11.212-1.094-23.834-6-34zm44 0c-1.193 4.39-2.35 8.787-3.5 13.188l-1.012 3.716c-3.273 12.658-2.882 23.906-.8 36.721l.54 3.392c1.152 6.933 2.486 13.794 4.21 20.608l.547 2.237C93.413 410.128 95.7 414.638 99 419h1q.112-11.715.165-23.431.02-3.983.061-7.964c.037-3.826.054-7.65.067-11.476.015-1.179.03-2.357.047-3.571.001-6.065-.409-11.107-2.694-16.758C97 354 97 354 97 351l4 6c2.09-3.074 2.086-5.272 1.501-8.876-1.02-4.327-2.76-8.393-4.439-12.499l-1.091-2.77C95.437 328.12 95.437 328.12 92 325m430 6q-.756 6.812-1.5 13.625l-.434 3.895-.41 3.77-.38 3.459c-.263 3.102-.325 6.139-.276 9.251 4.8-5.682 10.308-13.097 9.82-20.86-.744-2.532-1.646-4.779-2.82-7.14l-1.687-3.625L523 331zm-26 6c-.34 3.5-.67 7-1 10.5-.095.982-.19 1.965-.29 2.977-.516 5.537-.816 10.962-.71 16.523 4.127-3.669 7.776-7.468 9-13-.659-6.264-2.472-11.77-6-17zm75 2-.8 2.828a772 772 0 0 1-2.743 9.344l-1.644 5.578-.866 2.863-.802 2.746-.74 2.484c-.618 2.328-.618 2.328.595 5.157a2835 2835 0 0 0 3.813-7.062l1.08-1.99c4.467-7.702 4.467-7.702 5.982-16.198-.884-2.779-1.608-3.976-3.875-5.75m-527 4c-2.786 19.255-4.06 38.052-4.125 57.5l-.014 3.507c.028 14.895.265 24.28 10.764 35.368l1.484 1.613c2.643 2.89 2.643 2.89 5.891 5.012l-.26-2.136-1.178-9.739-.408-3.36q-.402-3.335-.791-6.671c-.214-1.825-.436-3.65-.675-5.471-.666-5.537-.775-11.034-.829-16.603l-.029-2.491c-.08-6.929-.08-6.929-.08-10.284C53.734 377.38 52.238 368.09 48 357c-.738-2.643-1.284-5.24-1.812-7.937l-.708-3.528L45 343zm503 2-.595 1.573c-.9 2.373-1.81 4.744-2.717 7.115-.31.816-.618 1.633-.936 2.474-1.312 3.41-2.552 6.519-4.494 9.627-1.496 2.629-1.498 3.94-1.07 6.899l.292 2.324c.397 2.202.397 2.202 2.52 3.988 1.66-3.202 3.3-6.412 4.938-9.625l1.42-2.738c3.065-6.043 5.291-10.591 3.83-17.45-.811-3.283-.811-3.283-3.188-4.187m-60 10a78 78 0 0 0-2.258 3.805l-1.386 2.442-1.481 2.628c-3.016 5.322-5.978 10.48-9.75 15.313-4.118 5.64-5.724 12.159-7.553 18.796a159 159 0 0 1-1.802 5.864l-1.145 3.527-1.023 3.148c-.88 2.46-.88 2.46.398 4.477 17.451-19.182 17.451-19.182 26-43l.375-2.191c.77-4.921.728-9.845.625-14.809zm-427 2c-3.179 15.496 3.28 27.445 11.617 40.156L73 399h1c.384-11.592-1.993-19.407-7.246-29.566-2.086-4.084-3.94-8.225-5.754-12.434zm45 0c-.675 1.83-.675 1.83-1 4a78 78 0 0 0 4.188 7.375l1.212 1.96A436 436 0 0 0 113 376l1.124 1.813c.905 1.431 1.884 2.815 2.876 4.187h2c-1.58-5.556-4.19-10.308-7-15.312l-1.367-2.495-1.32-2.369-1.2-2.153c-1.02-1.831-1.02-1.831-3.113-2.671m485 4-.734 2.965-1.016 3.973-.477 1.939c-.965 3.73-2.162 6.945-3.93 10.373-2.572 5.587-2.071 10.8-1.593 16.813l.2 3.2q.245 3.872.55 7.737h2a134 134 0 0 0 5.063-6.812l1.392-1.948c4.96-7.028 5.576-13.076 4.148-21.613-1.076-5.57-2.32-11.1-3.603-16.627zm-487 8q-.037 8.188-.055 16.376-.008 2.776-.02 5.553c-.112 24.358 2.39 38.524 19.263 57.071l1.474 1.635c3.166 3.405 6.379 5.925 10.338 8.365l-.82-2.05L132 453l-1.367-3.355c-4.821-12.097-8.321-24.123-9.074-37.18-.066-1.141-.133-2.282-.2-3.458a227 227 0 0 1-.237-6.71c-.379-8.475-3.125-13.553-8.122-20.297a514 514 0 0 1-2.617-3.918l-2.258-3.27-1.18-1.728A154 154 0 0 0 104 369zm401 0-.96 1.914c-2.601 4.985-5.274 9.44-8.838 13.804-7.301 9.117-8.809 18.887-10.202 30.282 4-2.752 7.564-5.249 10.688-9l1.636-1.937L498 402l2.066-2.277c2.317-3.263 3.29-6.447 4.184-10.286l.515-2.115c1.39-6.13 1.663-12.046 1.235-18.322zm58 1 1 2Zm-482 6c-1.873 21.188-1.873 21.188 3.953 40.36 1.87 1.848 1.87 1.848 4.047 1.64l-.367-1.857c-1.695-8.899-2.806-17.864-3.883-26.854-.242-2.006-.496-4.011-.75-6.016l-.437-3.58L82 377zm448 7c-1.64 1.85-1.64 1.85-3.312 4.188-2.08 2.801-3.76 4.869-6.5 7.062-5.16 6.485-4.459 16.767-4.188 24.75 10.93-7.394 12.928-18.871 15.636-30.966.452-2.182.452-2.182.364-5.034zm-470 2c-.296 14.085 1.277 28.012 2.788 41.993.202 1.909.386 3.82.57 5.73 1.672 17.386 1.672 17.386 11.747 30.957L76 466q2.502 2.34 5 4.688c2.47 2.193 3.83 3.256 7 4.312l-1.187-3.437Q85.9 468.783 85 466l-1.172-3.54c-2.681-8.388-4.572-16.771-6.016-25.46l-.52-3.12c-.722-4.523-1.359-8.982-1.562-13.56-.722-14.557-8.756-24.309-17.73-35.32m486 4c-4.064 6.472-7.613 12.167-6 20 .97 2.195.97 2.195 2 4 3.793-5.69 7.7-12.666 6.938-19.687L546 390zm-364 1c1.475 8.924 4.168 17.349 7.003 25.916.813 2.47 1.601 4.946 2.39 7.424q.78 2.373 1.564 4.746l.698 2.229c1.568 4.621 3.232 7.054 7.345 9.685 8.266 4.07 17.109 6.759 25.938 9.313l2.652.77c5.141 1.44 10.096 2.394 15.41 2.917a134 134 0 0 0-8.695-8.227c-4.143-3.61-8.177-7.322-12.18-11.086l-2.105-1.978c-7.253-6.84-14.406-13.714-20.895-21.295-3.057-3.473-6.216-6.847-9.375-10.226l-1.864-1.997c-2.593-2.77-5.191-5.52-7.886-8.191m395 6a206 206 0 0 0-3.75 6.063c-2.174 3.622-4.287 6.983-6.934 10.269-3.013 4.16-3.303 8.274-3.629 13.293l-.22 2.523c-.33 3.957-.556 7.88-.467 11.852 4.262-3.142 7.469-6.647 10.75-10.75l1.496-1.766c5.64-7.045 4.924-14.412 4.317-22.984l-.159-2.492A1102 1102 0 0 0 576 396zm-448 7 1 3Zm468 1a242 242 0 0 0-5.375 7.438l-1.5 2.083c-4.937 7.096-7.03 14.319-8.812 22.729l-.762 3.516c-.483 2.833-.664 5.37-.551 8.234 9.127-6.87 14.704-15.08 16.582-26.375A250 250 0 0 0 596 404zm-144 1-1.406 1.809C437.216 422.349 423.295 437.514 407 449c3.389 1.13 4.042.89 7.281-.258l2.537-.886a1294 1294 0 0 0 10.777-3.995C430 443 430 443 433.52 442.05c3.81-1.178 6.423-2.286 8.536-5.814 2.533-5.225 4.244-10.698 5.944-16.237q.667-2.002 1.348-4c2.325-5.526 2.325-5.526 1.652-11m-323 2c.372 18.553 5.564 43.435 18.313 57.563L148 466c-1.73-6.115-3.7-12.136-5.777-18.14l-.77-2.227a4844 4844 0 0 0-3.19-9.173c-3.395-9.748-6.558-19.495-9.263-29.46zm348 1-1.25 1.871c-4.18 6.13-8.7 11.698-13.75 17.129l2 1c5.934-2.343 10.615-5.605 14-11 .657-2.733.854-5.171 1-8zm-340 2c1.639 8.776 4.637 17.052 7.625 25.438l.814 2.289c4.673 13.113 4.673 13.113 9.874 26.023l.836 2.049c3.618 8.074 10.238 11.848 18.101 15.076l2.14.93c3.014 1.278 5.305 2.195 8.61 2.195-1.76-5.92-4.397-11.416-7-17 2.325 2.755 4.38 5.54 6.227 8.629 5.551 9.6 5.551 9.6 14.98 14.738L201 491l3.637 1.133c6.643 2.454 6.643 2.454 13.363 1.867-7.31-6.698-7.31-6.698-14.75-13.25-12.715-11.073-25.415-22.713-36.352-35.57-2.018-2.318-4.102-4.563-6.2-6.808-7.974-8.538-15.336-17.472-22.386-26.79L137 410zm394.483 2.236c-1.772 2.108-1.963 3.278-2.213 5.994l-.245 2.432-.212 2.526-.249 2.56c-.2 2.083-.383 4.167-.564 6.252 4.422-3.991 5.267-7.236 6-13 .134-2.694.098-5.3 0-8-1.197-.105-1.197-.105-2.517 1.236M83 422c2.975 27.188 12.917 58.601 33 78l2-1-.867-1.73c-9.138-18.36-17.027-36.83-22.195-56.707C92.94 432.92 90.558 426.93 84 422zm75 3c1.639 3.839 4.18 6.806 6.875 9.938l1.475 1.724c7.665 8.902 15.68 17.447 23.963 25.776l1.704 1.718c3.832 3.817 7.83 7.379 11.983 10.844l2-1-1.758-3.008c-4.526-7.842-8.53-15.526-11.758-24.004-3.293-6.63-8.252-9.132-14.734-11.925-5.768-2.583-11.07-5.269-16.184-9.032-1.532-1.214-1.532-1.214-3.566-1.031m334 6a163 163 0 0 0-4 4.375l-2.46 2.766L483 441a4953 4953 0 0 1-4.625 5.125q-2.194 2.43-4.375 4.875l-1.587 1.628c-5.445 5.791-8.82 12.296-12.35 19.372l-1.784 3.504A1317 1317 0 0 0 454 484c5.064 0 8.23-3.863 12-7l2.309-1.895c13.81-11.752 21.197-26.44 24.691-44.105zm25 0c-7.342 6.603-10.13 14.814-13 24v2c4.499-1.375 6.357-3.141 9-7 1.147-2.652 1.993-5.357 2.813-8.125l.693-2.168c1.352-4.33 1.352-4.33.494-8.707m9 1 1 2Zm22 0-1.066 2.927A4726 4726 0 0 1 542 448.375l-.893 2.425c-3.673 9.955-7.406 19.827-12.01 29.399-.749 1.577-1.432 3.186-2.097 4.801l1 2c12.024-11.084 20.39-33.002 21.098-49.238l-.035-2.075L549 432zm-84.187 3.313c-3.133 1.458-6.014 2.745-9.344 3.703-5.15 2.946-6.51 7.101-8.781 12.421l-1.3 2.893a458 458 0 0 0-2.354 5.336A126 126 0 0 1 439 466c11.652-4.935 25.076-20.482 32-31v-2c-2.796 0-4.659 1.13-7.187 2.313M572 434a199 199 0 0 0-4.125 5l-2.258 2.813-1.23 1.536a75 75 0 0 1-3.097 3.449c-4.76 5.063-7.328 10.026-9.727 16.515l-1.061 2.705c-1.923 4.852-1.923 4.852-2.502 9.982 17.276-12.713 17.276-12.713 24.66-31.816.369-3.451.501-6.722.34-10.184zm-529 5c4.452 43.965 33.249 86.802 66.281 114.852 19.12 15.21 50.402 35.99 75.719 35.148l-2.164-2.113c-1.905-1.896-3.614-3.806-5.36-5.867-8.7-10-18.695-14.064-30.818-18.909-13.724-5.737-25.58-15.014-36.404-25.068a95 95 0 0 0-4.84-4.09c-18.907-15.297-33.454-42.15-40.333-65.139-1.921-6.415-3.799-10.453-8.886-14.834-3.552-3.204-6.354-7.01-9.312-10.757-1.69-2.29-1.69-2.29-3.883-3.223m65 4c.555 5.002 2.213 9.016 4.5 13.438l1.077 2.106C121.43 473.7 130.689 487.2 142 500c1.302-2.02 1.302-2.02.223-4.383l-1.16-2.742-1.153-2.758L139 488h2l.777 2.629c5.824 16.056 18.924 23.394 33.362 30.558 2.25.983 4.426 1.516 6.861 1.813-3.926-5.512-8.212-10.566-12.777-15.559a288 288 0 0 1-5.723-6.503c-3.27-3.763-6.785-7.24-10.332-10.739a104 104 0 0 1-5.356-5.887c-3.972-4.641-8.343-8.869-12.682-13.163-3.707-3.683-7.247-7.437-10.626-11.426-2.122-2.431-4.427-4.657-6.73-6.914-2.6-2.652-4.993-5.471-7.391-8.305L109 443zm91 3c3.87 13.454 12.065 27.278 21 38l2.14 2.594c9.934 11.723 9.934 11.723 23.491 17.68 3.311.03 6.62.054 9.932.038 1.215-.005 2.43-.01 3.683-.017 17.553-.234 33.122-3.88 49.754-9.295-1.594-3.188-4.894-4.029-8-5.5-5.872-2.867-11.614-5.88-17.25-9.187l-2.138-1.244a131 131 0 0 1-11.077-7.315c-13.152-9.528-26.315-13.181-41.94-16.851-6.193-1.555-12.191-3.628-18.214-5.735-3.78-1.318-7.41-2.537-11.381-3.168m389 3-2.16 2.414-2.903 3.211-1.412 1.582c-2.55 2.81-5.056 5.213-8.091 7.492-4.614 3.866-6.26 8.97-8.309 14.488l-1.18 3.022c-1.389 3.576-2.732 7.151-3.945 10.791 3.593-1.544 6.082-3.726 8.938-6.375 2.493-2.305 4.902-4.51 7.652-6.504 6.76-5.95 11.163-18.317 12.41-27.121zm-166.402 3.207-2.682.772-5.76 1.686c-4.682 1.366-9.315 2.599-14.094 3.585-5.13 1.393-8.993 4.291-13.18 7.433C370.618 477.12 352.958 488.337 335 495v2a536 536 0 0 0 7.5 2.563l2.11.748c5.815 1.911 10.89 2.367 16.524-.335 2.33-1.349 4.566-2.79 6.803-4.288l2.502-1.63c7.597-4.986 15.04-10.19 22.408-15.506 2.235-1.611 4.479-3.211 6.723-4.81 7.26-5.186 14.457-10.441 21.493-15.93l1.787-1.386c3.028-2.321 3.028-2.321 5.15-5.426-2.346 0-4.147.552-6.402 1.207M429 459c-.423.44-.845.882-1.28 1.336-4.04 4.137-8.193 7.799-12.845 11.226l-2.06 1.528C397.829 484.08 382.21 493.923 366 503c2.768 2.768 4.443 2.3 8.313 2.313 12.9-.251 21.867-2.805 31.687-11.313l2.262-1.89c8.87-8.09 17.061-20.023 21.738-31.11zm96 1 1 2Zm-1 2 1 3Zm-1 3 1 2Zm-247 2c3.035 3.035 4.91 4.738 8.457 6.77l2.601 1.495c.91.51 1.818 1.021 2.755 1.548l2.83 1.596c5.535 3.091 11.095 6.125 16.795 8.904l3.433 1.675c7.328 2.37 13.565-1.858 20.067-5.05l3.08-1.497C350.44 476.078 350.44 476.078 363 467zm246 0-1.363 2.64c-4.469 8.378-9.556 15.099-16.183 21.866-2.51 2.58-4.95 5.224-7.392 7.869l-2.652 2.836c-4.528 4.808-4.528 4.808-6.41 10.789 10.317-3.152 16.675-5.35 22-15 2.168-4.17 4.22-8.387 6.25-12.625l1.64-3.352 1.563-3.25 1.411-2.924c1.181-2.962 1.729-5.694 2.136-8.849zm-12.375 3c-5.316 5.814-5.316 5.814-7.625 13 3.738-.89 5.617-1.542 8.117-4.531l1.758-2.969 1.805-2.969c1.474-2.35 1.474-2.35 1.32-4.531-3.135-.322-3.135-.322-5.375 2M113 469l1 2Zm-41 1c.522 5.716 2.77 10.029 5.438 15l1.355 2.542C82.945 495.166 87.63 502.188 93 509l1.268 1.614C110.759 531.354 132.74 553.756 159 561c-3.67-4.926-7.381-9.818-11.125-14.687l-1.271-1.656Q144.807 542.325 143 540l-2.078-2.723c-1.758-2.082-3.32-3.491-5.547-5.027-12.223-8.89-21.605-19.71-30.375-31.875-4.795-6.626-9.435-12.41-16-17.375l-2.523-2.062A235 235 0 0 0 72 470m42 1 1 2Zm1 2c.872 6.5 3.384 11.692 6.188 17.563l1.423 3.115c4.51 9.491 9.5 13.28 18.951 17.572l2.249 1.063c3.705 1.715 7.103 3.137 11.189 3.687-2.806-2.963-5.696-5.267-9.062-7.562-10.49-7.589-17.91-16.222-24.747-27.055-1.873-2.963-3.943-5.689-6.191-8.383m331.688 3.938c-5.613 5.117-11.55 9.601-17.688 14.062 5.423 1.808 10.898-.839 16-3 4.034-4.13 5.397-9.536 7-15-2.042 0-3.942 2.658-5.312 3.938M559 476l-2.02 1.941c-4.569 4.289-8.816 8.133-14.293 11.247-7.279 4.38-12.505 10.8-18.111 17.074-3.06 3.376-6.31 6.563-9.576 9.738 3.698 1.233 5.014.314 8.394-1.35l2.106-1.087 2.17-1.112c14.312-7.507 26.825-17.726 32.33-33.451zm-396 6c3.953 4.342 8.184 7.193 13.25 10.125l2.16 1.3c5.016 2.938 10.015 4.948 15.59 6.575-3.64-7.963-12.782-11.016-20.375-14.312l-2.441-1.088c-3.95-1.907-3.95-1.907-8.184-2.6m411 9-1.51 1.098a7225 7225 0 0 1-6.928 5.027l-2.373 1.727c-3.956 2.865-7.928 5.627-12.056 8.242-3.552 2.349-5.714 4.51-7.82 8.281-2.818 4.813-5.88 9.235-9.313 13.625 6.952-2.439 12.994-6.802 19.132-10.794 1.495-.965 3.008-1.9 4.528-2.823 7.488-5.028 13.656-14.186 17.34-22.383zm-86.371 5.344-3.067 3.156A146 146 0 0 1 468 514l2 1a72 72 0 0 0 6.25-3.5l1.78-1.11c6.673-4.303 11.051-8.524 12.97-16.39-1.437-.117-1.437-.117-3.371 2.344M197 495c2.788 4.825 4.898 6.834 10 9 7.56 2.001 15.163 3.48 23 3-4.571-6.17-11.015-7.051-18.187-8.812l-3.64-.944c-5.517-1.592-5.517-1.592-11.173-2.244m234 3c-2.558.504-5.12.937-7.695 1.34-2.57.736-3.614 1.632-5.305 3.66 5.827 1.37 12.691 1.913 18.047-1.184 1.823-1.48 1.823-1.48 3.953-3.816-3.715-2.477-5.05-1.718-9 0m-113.082 3.242-2.326.793-2.404.84c-5.366 1.849-10.715 3.62-16.188 5.125v1c4.236 1.027 8.353 1.161 12.688 1.168l2.239.01q2.344.007 4.69.007c2.348.002 4.695.02 7.043.04 8.994.032 17.484-.499 26.34-2.225v-2l-1.665-.335q-3.762-.765-7.522-1.54l-2.62-.527c-4.28-.886-8.136-1.951-12.193-3.598-3.39 0-5.027.184-8.082 1.242M459 501c-17.846 4.289-28.474 15.25-40 29 3.15 1.01 4.78 1.44 8 1 3.49-2.193 6.428-4.9 9.473-7.667 2.597-2.268 5.385-4.278 8.152-6.333 5.6-4.225 10.586-8.877 15.375-14zm-282 2c3.743 9.159 15.306 15.929 23.055 21.773C203 527 203 527 205.457 529.211c3.145 2.212 5.56 2.579 9.356 3.039 1.16.15 2.322.3 3.519.453L221 533a741 741 0 0 0-10.562-12.187l-2.192-2.481c-5.474-5.684-11.186-8.21-18.434-11.082l-3.06-1.246c-4.734-2.145-4.734-2.145-9.752-3.004m224 11c-2.954 1.935-4.726 3.789-6.941 6.512-10.86 13.127-29.43 21.665-45.059 27.488v2c5.292 1.702 9.892 1.733 14.93-.668 3.91-2.085 7.691-4.38 11.457-6.715a575 575 0 0 1 8.36-5.05C397.552 529.305 411.271 520.87 424 511c-5.833-2.916-17.072 1.044-23 3m-139 0c3.68 4.035 8.427 6.199 13.188 8.75l2.79 1.574 2.752 1.473 2.482 1.354c6.397 1.948 13.085-.659 19.226-2.655l2.32-.735c2.416-.768 4.829-1.546 7.242-2.323q2.475-.79 4.95-1.577 6.028-1.92 12.05-3.861v-1c-6.46-.92-12.856-1.272-19.375-1.5-12.234-.445-12.234-.445-17.598-.855-10.271-.777-19.843-.205-30.027 1.355m61.12 8.728c-5.423 2.211-10.934 4.176-16.459 6.115-4.196 1.461-4.196 1.461-7.661 4.157 13.34 6.642 13.34 6.642 27.655 5.061a282 282 0 0 0 9.033-3.936l3.298-1.475C358.16 524.036 358.16 524.036 376 513v-1c-19.94-.435-34.462 3.029-52.88 10.728M133 513c3.469 10.406 9.825 14.132 19.188 18.938l3.35 1.783c4.98 3.008 4.98 3.008 10.462 4.279-3.151-8.369-7.217-13.448-15.324-17.337a379 379 0 0 0-8.79-3.81c-2.416-1.092-4.622-2.48-6.886-3.853zm78 0c3.148 4.307 6.237 8.51 10.063 12.25l1.91 1.89L225 529l2.213 2.092c3.423 2.344 5.287 2.374 9.4 2.299l3.78-.04 3.92-.101 3.978-.055A888 888 0 0 0 258 533c-2.903-3.724-5.805-6.671-9.5-9.625l-2.844-2.29L243 519l-1.759-1.571c-2.941-1.875-5.293-2.048-8.757-2.378l-3.789-.381-3.945-.357q-1.996-.195-3.992-.393-4.877-.476-9.758-.92m40 3c3.541 4.623 7.422 8.405 12 12l3 2.375c2.918 1.91 2.918 1.91 6.313 1.5L275 531l1-2a6836 6836 0 0 0-10.812-5.937l-3.104-1.71-2.979-1.63-2.745-1.508c-2.409-1.316-2.409-1.316-5.36-2.215m217.125 3.875-2.184 1.105q-2.025 1.026-4.05 2.059c-1.96.996-3.924 1.98-5.891 2.961v2c12.132-2.764 12.132-2.764 21.281-10.16L478 516c-3.593 0-6.724 2.263-9.875 3.875M530 517.828l-2.424 1.168L525 520.25c-5.15 2.505-10.15 4.904-15.625 6.625-6.23 2.356-9.546 7.947-13.375 13.125a249 249 0 0 1-3.562 4.188L490 547c16.5-4.49 34.578-11.854 44.219-26.902.93-1.759.93-1.759 1.781-4.098-2.47 0-3.78.747-6 1.828M498 517a787 787 0 0 0-8.125 3.625l-2.305 1.004c-5.258 2.402-8.707 5.063-12.57 9.371l1 2a787 787 0 0 0 8.125-3.625l2.305-1.004c5.258-2.402 8.707-5.063 12.57-9.371zm-331 11c1.295 3.473 2.79 6.52 4.813 9.625l1.457 2.29c3.31 3.99 7.44 5.485 12.363 6.726l3.191.804 3.301.805 3.324.852 3.184.789 2.903.72c2.59.603 2.59.603 5.464-.611l-2.957-2.52-3.856-3.293-1.947-1.658-1.885-1.611-1.73-1.476C193 538 193 538 191.592 536.432c-2.012-1.81-3.839-2.419-6.407-3.256l-2.815-.928-2.931-.936-2.944-.97c-4.655-1.684-4.655-1.684-9.494-2.342m239 2a136 136 0 0 0-7.562 4.625q-2.173 1.393-4.348 2.781l-2.126 1.36c-3.569 2.242-7.25 4.244-10.964 6.234v1c6.849.819 6.849.819 13.23-1.277 2.057-1.81 3.913-3.708 5.77-5.723q2.245-2.223 4.5-4.437A972 972 0 0 0 408 531zm48.563 4.188-2.315.595c-4.893 1.384-7.425 2.738-10.248 7.217 2.732-.593 5.46-1.2 8.188-1.812l2.33-.502c5.771-1.313 10.058-2.55 13.482-7.686-4.014 0-7.605 1.11-11.437 2.188M414 535l-10 7c2.987 1.372 2.987 1.372 5.7-.215l2.988-1.722 3.011-1.715L418 537zm-132 2c3.438 2.905 7.236 4.538 11.375 6.188l1.96.826c4.018 1.615 7.343 2.565 11.665 1.986 1.879-1.375 1.879-1.375 3-3-13.551-5.44-13.551-5.44-28-6m260-1-2.465 1.142c-14.783 6.828-29.517 13.541-44.869 19.016Q490.817 557.535 487 559l-2.092.796c-6.412 2.791-10.765 7.65-15.533 12.641C459.356 582.78 459.356 582.78 454 587c3.4 1.133 4.046.891 7.297-.266l2.62-.93 2.833-1.054 2.946-1.088C497.528 573.12 521.47 558.522 543 538zm-336 2c3.783 6.305 8.7 13.508 16.125 15.5 3.36.433 6.495.669 9.875.5-3.826-4.16-8.786-6.75-13.562-9.687l-2.944-1.838-2.81-1.737-2.577-1.592c-2-1.305-2-1.305-4.107-1.146m41.938.938-2.913.302A983 983 0 0 0 238 540c4.364 4.738 7.192 6.762 13.637 7.309q2.025.071 4.05.129c5.711.242 10.509 1.043 15.934 2.925 5.619 1.504 11.807 1.244 17.379-.363v-2c-3.304-1.5-6.62-2.97-9.937-4.437l-2.807-1.276c-9.857-4.323-17.726-4.536-28.318-3.35M220 540c2.284 2.284 3.748 2.715 6.813 3.625.852.26 1.704.52 2.582.79 2.625.59 4.924.69 7.605.585-3.612-3.94-3.612-3.94-8.602-5.098l-3.023.035-3.04.028zm260 2a833 833 0 0 0-10.187 4.125l-2.909 1.148c-5.814 2.415-9.353 4.48-12.904 9.727 3.392 1.696 6.835-.114 10.313-1.125l2.302-.61c6.758-1.949 10.356-5.54 14.385-11.265zm-325 2c3.665 5.192 7.646 9.949 11.938 14.625l1.483 1.63A184 184 0 0 0 173 565l1.613 1.648c4.493 4.254 8.617 5.68 14.637 6.79l2.43.521c4.68 1 4.68 1 9.32.041-.64-.63-1.281-1.258-1.941-1.906l-2.621-2.594-2.801-2.766c-2.171-2.251-4.011-4.496-5.887-6.984-3.839-4.488-8.612-6.188-14.023-8.297-4.846-1.89-9.484-4.118-14.18-6.351-2.39-1.234-2.39-1.234-4.547-1.102m83 9c2.157 2.157 6.948 1.185 9.938 1.188l2.537.037 2.427.005 2.234.013c2.11-.082 2.11-.082 3.864-2.243-2.98-1.49-6.101-1.496-9.375-1.75l-2.04-.207c-4.237-.325-6.526-.086-9.585 2.957m53.309 4.266C286.7 558.73 281.804 558.764 277 559c4.217 3.88 8.41 5.511 13.75 7.25l2.305.813c8.387 2.786 15.579 2.516 23.945-.125l2.164-.657c8.155-2.56 16.003-5.88 23.836-9.281v-1q-6.237-.219-12.476-.427-2.11-.072-4.223-.146c-7.344-.257-14.687-.471-22.035-.548l-3.328-.037c-3.556.191-6.354 1.111-9.63 2.424M446 554c-3.86.7-7.711 1.44-11.562 2.188l-3.292.595c-6.596 1.303-11.01 2.833-16.146 7.217 4.293 1.431 7.846.465 12.25-.25l2.527-.371c6.27-.994 13.012-2.177 17.223-7.379zm-51.883 6.98c-3.972 2.03-7.824 3.738-12.117 5.02.875 2.276.875 2.276 3.625 3.188 4 .962 6.379.793 10.375-.188 2.966-2.382 2.966-2.382 5.438-5.437.864-.99 1.73-1.978 2.62-2.997 2.143-2.296 2.143-2.296 1.942-4.566-4.11 0-8.253 3.099-11.883 4.98m-53.35 3.073c-2.189 1.173-4.435 2.097-6.767 2.947v1c7.848-.133 14.873-.924 22.313-3.375l1.974-.634c2.036-.678 2.036-.678 4.713-1.991l1-3c-9.186-3.937-15.186.538-23.232 5.053M194 559a329 329 0 0 0 6 7l1.98 2.398c5.82 6.552 10.407 8.05 19.02 8.602l2.895.32c5.721.624 11.353.774 17.105.68-2.857-3.057-5.75-5.255-9.312-7.437-5.362-3.297-5.362-3.297-7.248-4.836-4.91-3.946-9.387-4.823-15.565-5.54l-2.668-.365c-4.086-.539-8.078-.985-12.207-.822m71 5a984 984 0 0 0 5.625 3.375l3.164 1.898c5.993 3.223 10.55 3.957 17.211 3.727l1-2-3.07-1.207-4.055-1.606-2.016-.79c-3.146-1.25-6.147-2.545-9.164-4.096-3.924-1.894-5.044-1.735-8.695.699m-29-1c3.994 3.376 8.198 6.044 12.688 8.688l2.048 1.22c5.801 3.446 9.189 4.225 15.889 4.154l2.43-.013q2.972-.02 5.945-.049v-2l-1.88-.886a7061 7061 0 0 1-8.433-3.989l-2.958-1.395-2.842-1.347-2.619-1.238C254 565 254 565 251 563a96 96 0 0 0-7.687-.125l-2.127.027c-1.73.024-3.458.06-5.186.098m207 6c-5.636 3.216-10.676 7.28-15.766 11.284-3.682 2.828-7.517 5.424-11.359 8.029l-4.008 2.738L409 593c1.961 2.417 1.961 2.417 5.668 2.117q2.26-.104 4.52-.242l2.251-.07c8.71-.489 14.206-5.047 20.498-10.617l1.85-1.612Q446.4 580.295 449 578l4.438-3.875 1.808-1.59c2.897-2.536 5.826-5.034 8.754-7.535-6.444-2.148-14.93 1.393-21 4m-41 5c-3.814 1.4-6.863 3.527-10.129 5.941-5.129 3.678-11.035 5.741-16.871 8.059l-3.105 1.258A736 736 0 0 1 365 592v1a835 835 0 0 0 17.54 1.755c1.972.196 3.937.468 5.897.765 9.345.973 15.335-4.477 22.38-9.872 3.82-2.884 7.76-5.595 11.683-8.336q3.752-2.652 7.5-5.312c-6.91-3.455-20.69.423-28 2m-62.871-1.523c-7.803.73-15.622.865-23.453 1.04-5.898.176-11.108.472-16.676 2.483 1.594 3.189 4.799 3.6 8 4.688l1.926.72c8.738 2.986 16.731.365 25.262-2.283l2.615-.777c4.646-1.415 8.915-3.007 13.197-5.348v-1c-3.67-.1-7.227.1-10.871.477M187 578c3.541 4.375 7.008 8.085 11.625 11.375 1.38 1.002 1.38 1.002 2.79 2.023 5.01 3.104 10.398 2.966 16.148 3.29l2.615.181 2.513.143 2.288.14c2.34-.01 2.34-.01 5.021-2.152a404 404 0 0 0-4.875-3.75l-2.742-2.11c-7.643-5.19-15.976-6.865-25.008-7.89l-3.043-.379A754 754 0 0 0 187 578m153 9c12.737-.357 24.386-2.47 36-8v-1c-12.61-1.296-25.387 1.925-36 9m-69-6c7.557 6.573 19.856 8.601 29.547 8.371 2.521-.381 4.26-1.095 6.453-2.371v-1l-3.324-.805-4.363-1.07-2.186-.527c-3.055-.754-5.921-1.513-8.834-2.72-5.267-2.018-11.919-1.311-17.293.122m-48 1c6.172 6.34 13.934 12.183 22.828 13.617 3.772.008 7.42-.24 11.172-.617l3.914-.187c7.333-.291 7.333-.291 14.086-2.813-17.66-8.686-32.378-11.496-52-10m106.885 16.033c-16.698.157-32.73.328-48.885 4.967-2.037.438-4.078.859-6.125 1.25L271 605c19.578 13.052 52.623 10.563 74.746 6.495C356.534 609.28 366.89 606.41 377 602c-2.35-2.35-2.878-2.27-6.07-2.379l-2.47-.103-2.585-.08c-9.136-.334-9.136-.334-13.617-.965-7.396-.997-14.93-.498-22.373-.44m83.506 2.916c-14.948-.222-26.695.438-39.864 7.692-4.796 2.63-9.727 4.266-14.964 5.797l-2.366.71c-11.864 3.384-23.492 4.228-35.76 4.164l-2.273-.006c-18.583-.086-40.097-1.132-56.027-11.92-7.107-4.079-15.728-3.441-23.7-3.698q-2.54-.108-5.08-.221c-4.118-.18-8.237-.331-12.357-.467 16.846 17.607 48.925 24.464 72 28l3.465.559c39.93 4.782 87.982-4.195 120.57-28.856L419 601c-1.87 0-3.74-.014-5.61-.051"/><path fill="#414042" d="m1895.75 246.688 2.438-.05c4.792-.003 8.907.592 13.527 1.87 9.872 2.445 19.995 1.809 30.098 1.68q3.09-.024 6.181-.042c5.002-.032 10.004-.084 15.006-.146v14l-25 1 7 8c7.665 14.087 7.44 29.91 3 45-5.988 15.242-15.812 23.534-30.54 30.176-8.698 2.913-16.46 2.932-25.552 2.13-2.88-.117-5.134-.1-7.908.694-3.546 3.28-5.624 6.853-6.458 11.612.237 2.562.237 2.562 2.484 4.161 3.555 1.467 6.767 1.748 10.556 1.852l2.218.1c2.337.105 4.674.192 7.013.275 18.113.661 37.151 1.631 52.187 13l2.5 1.625c6.807 6.466 11.044 15.62 11.781 24.922.373 15.454-4.207 26.851-14.773 38.098-14.01 13.158-32.237 16.758-50.82 16.668l-3.61-.015c-17.992-.24-34.59-4.713-48.113-17.173-6.253-6.585-9.123-13.56-9.527-22.625.296-8.99 4.246-16.184 10.562-22.5 5.946-4.66 12.318-8.497 19-12l-2.187-1.75L1864 385l-2.687-1.937c-3.129-2.79-4.153-4.805-4.45-8.997.3-8.837 5.965-15.704 11.574-22.128 2.782-2.54 2.782-2.54 2.563-4.938l-2.23-1.172c-12.562-6.704-19.947-14.214-24.77-27.828-4.176-16.532-2.492-33.404 6.188-48.195 7.238-11.202 17.991-18.696 30.98-21.89 4.886-1.041 9.599-1.247 14.582-1.227m-20.27 23.25c-8.638 12.106-10.18 26.672-7.855 41.187 2.307 9.724 6.875 18.37 15.375 23.875 7.08 3.968 14.901 4.078 22.625 1.938 7.844-2.994 12.938-8.5 16.344-16.07 5.371-14.936 5.908-30.987-.188-45.837-4.028-7.43-9.552-11.399-17.343-14.406-10.693-1.944-21.966.398-28.958 9.313M1869 402c-5.585 6.789-7.46 12.316-7.332 21.059.914 8.1 5.519 14.098 11.664 19.183 11.974 7.89 26.295 9.207 40.219 7.262 6.873-1.43 12.606-3.617 18.449-7.504l2.688-1.687c5.587-5.588 9.346-12.497 9.624-20.438-.114-6.349-1.923-11.918-5.937-16.887-10.475-10.06-25.393-12.537-39.363-12.297-10.986.651-21.941 3.468-30.012 11.309M1315.597 198.876l2.88.01h3.015c3.306 0 6.612.009 9.918.016l6.856.005q9.043.006 18.086.024 9.22.014 18.439.02 18.105.016 36.209.049v15h-77v76c23.65-.04 23.65-.04 47.3-.09 4.566-.005 4.566-.005 6.701-.005q2.245-.003 4.49-.01 3.393-.01 6.786-.009l3.87-.006C1406 290 1406 290 1407 291c.099 2.165.13 4.333.125 6.5l.008 3.594C1407 304 1407 304 1406 305c-2.208.124-4.42.178-6.631.205l-2.133.03q-3.432.047-6.865.081l-4.226.057c-5.236.068-10.472.128-15.707.19L1335 306v81l78 1v15c-1 1-1 1-2.732 1.123l-2.299-.003-2.63.004-2.908-.01h-3.044c-3.339 0-6.677-.009-10.016-.016l-6.923-.005q-9.132-.006-18.264-.024-9.31-.014-18.62-.02-18.282-.016-36.564-.049c-1.565-3.13-1.137-6.466-1.127-9.902l-.005-2.503c-.004-2.783 0-5.566.003-8.35l-.006-5.966q-.004-8.12 0-16.239c.003-5.653 0-11.306 0-16.959q-.003-14.24.005-28.48.007-16.49-.002-32.979-.007-14.132-.003-28.265.003-8.45-.001-16.903-.004-7.943.005-15.884 0-2.925-.002-5.848-.002-3.974.006-7.947l-.007-2.368c.026-6.955.89-6.52 7.731-6.531M1542.75 253.688c9.094 6.585 14.76 14.376 16.838 25.445 1.769 12.794 1.684 25.525 1.642 38.422v7.315q-.003 7.613-.024 15.224c-.017 6.515-.021 13.03-.02 19.544q-.001 7.528-.013 15.055l-.006 7.213q-.004 5.011-.022 10.023l.002 3.02-.013 2.742-.005 2.39C1561 402 1561 402 1560 404h-23l-.044-10.075c-.05-11.02-.117-22.04-.192-33.06a7444 7444 0 0 1-.11-20.033q-.041-9.677-.117-19.354-.025-3.681-.035-7.362c.42-23.92.42-23.92-9.502-45.116-5.941-5.056-12.661-6.499-20.316-6.312-7.99.93-15.476 4.088-20.684 10.312-12.743 17.748-13.286 38.913-13.379 59.887q-.024 2.991-.051 5.983c-.046 5.209-.08 10.418-.113 15.627q-.08 12.562-.188 25.123-.033 4.383-.055 8.765l-.04 5.333-.008 2.466c-.052 5.589-.052 5.589-1.166 7.816h-23V250h22l1 24 2.875-4.937c7.51-11.719 17.473-18.443 30.957-21.664 13.16-2.422 26.466-.68 37.918 6.288M1698 257c12.11 10.753 18.42 26.775 19.914 42.754.22 5.742.332 11.504.086 17.246-1.856 1.856-4.494 1.12-6.963 1.124l-2.596-.01h-2.72c-2.98 0-5.962-.009-8.944-.016l-6.183-.005q-8.156-.006-16.31-.024-8.315-.014-16.63-.02-16.327-.016-32.654-.049c.135 3.151.28 6.302.426 9.453l.114 2.669c.865 18.306 4.46 38.07 17.46 51.878 7.882 6.605 16.767 10.487 27.125 9.813 11.862-1.07 22.058-6.269 31.875-12.813h4c1.773 2.047 1.773 2.047 3.375 4.75l1.648 2.672c.977 2.578.977 2.578.559 4.66-2.289 2.775-5.121 4.241-8.27 5.856l-2.003 1.047c-17.08 8.65-36.47 12.19-55.223 7.113-10.31-3.668-18.441-9.359-26.086-17.098l-1.89-1.824c-17.273-17.934-19.62-43.33-19.391-66.887.22-8.578 1.577-16.176 4.281-24.289l1.133-3.523c5.822-16.543 16.524-29.921 31.867-38.477 19.973-9.228 43.8-9.342 62 4m-61.629 17.05C1630.667 282.16 1626 293.906 1626 304h67c0-13.098-.92-25.162-10.008-35.223-6.093-5.849-11.577-8.356-19.93-9.152-11.141.532-19.82 5.841-26.69 14.426M1979 250h26c6.217 17.025 12.346 34.079 18.328 51.188l.698 1.996q3.49 9.98 6.965 19.964 1.642 4.716 3.286 9.43l1.257 3.606a673 673 0 0 0 8.507 23.034C2045 362 2045 362 2045 365h2l.68-3.47c1.666-7.473 4.124-14.727 6.449-22.014q.771-2.433 1.54-4.865 2.03-6.406 4.07-12.81c2.143-6.738 4.279-13.48 6.416-20.221l2.35-7.404a2884 2884 0 0 0 7.889-25.189 3218 3218 0 0 0 2.951-9.626l1.026-3.34.887-2.908C2082 251 2082 251 2083 250c2.863-.073 5.7-.092 8.563-.062l2.443.013q2.997.02 5.994.049c-.507 7.805-2.611 14.563-5.164 21.93l-1.283 3.773c-1.144 3.361-2.3 6.72-3.457 10.076-1.22 3.544-2.428 7.09-3.638 10.638a5402 5402 0 0 1-16.417 47.326c-4.692 13.338-9.24 26.722-13.756 40.12l-.907 2.693q-4.576 13.575-9.134 27.158-1.726 5.146-3.457 10.288-.806 2.4-1.609 4.8c-3.508 10.49-7.243 20.86-11.178 31.198h-23c.86-3.444 1.542-5.146 3.371-8.027l1.477-2.37c.524-.839 1.049-1.677 1.59-2.54 4.454-7.262 8.485-14.61 12.124-22.313l1.227-2.594A327 327 0 0 0 2030 415l.94-2.139c.277-.67.553-1.342.837-2.033l.723-1.737c1.58-6.607-.164-11.85-2.516-17.939l-.977-2.616c-1.075-2.87-2.166-5.734-3.257-8.599q-1.152-3.064-2.3-6.13a6820 6820 0 0 0-4.909-13.05c-3.806-10.104-7.543-20.233-11.286-30.361a33942 33942 0 0 0-7.516-20.317 6889 6889 0 0 0-7.542-20.258q-2.408-6.446-4.808-12.893-1.131-3.03-2.268-6.058-1.56-4.155-3.105-8.315l-.935-2.467-.838-2.268-.732-1.956C1979 254 1979 254 1979 250M926 178h11c2.16 2.16 1.187 7.201 1.205 10.201l.03 2.927q.047 4.813.081 9.626l.063 6.654q.083 8.776.153 17.553.077 8.949.161 17.896.162 17.572.307 35.143l1.651-2.708 2.173-3.55 1.085-1.78c7.362-12.01 16.373-18.469 30.095-22.251 3.748-.89 7.142-1.462 10.996-1.711l2.367-.191c14.546-.67 28.134 4.077 38.883 13.816 16.132 17.11 13.906 42.189 13.883 63.887q0 3.395.003 6.79.002 7.074-.006 14.148a9402 9402 0 0 0 .004 18.162q.004 6.99 0 13.982 0 3.351.002 6.702.003 4.66-.007 9.32l.007 2.807-.009 2.552-.001 2.222C1040 402 1040 402 1039 404h-12l-.018-4.075q-.086-19.088-.218-38.174c-.044-6.541-.084-13.082-.11-19.622q-.041-9.483-.117-18.966-.025-3.603-.035-7.205c-.057-25.084-.057-25.084-9.502-47.958l-.934-2.176c-1.372-2.347-2.578-2.787-5.066-3.824l-2.402-1.254-2.535-1.308-2.528-1.317c-8.713-3.853-21.57-3.557-30.535-.496-13.778 5.97-23.083 16.374-28.775 30.268-3.712 9.86-5.363 19.105-5.414 29.607l-.026 2.806q-.026 2.999-.045 5.997-.032 4.74-.077 9.48c-.07 7.839-.13 15.678-.19 23.518q-.075 9.96-.165 19.92c-.027 3.12-.047 6.24-.068 9.361l-.05 5.695-.013 2.648c-.063 5.961-.063 5.961-1.177 7.075h-11zM1175 256c12.185 9.257 18.017 24.558 20.559 39.223.515 4.41.588 8.717.566 13.152l.012 2.48c-.01 6.018-.01 6.018-1.137 7.145-3.075.095-6.127.126-9.201.114h-2.927c-3.209 0-6.417-.009-9.626-.016l-6.654-.005q-8.776-.006-17.553-.024-8.949-.014-17.896-.02-17.572-.016-35.143-.049c.286 4.139.585 8.276.887 12.414l.243 3.52c1.503 20.351 6.755 40.08 22.065 54.539 9.275 7.849 18.954 10.153 31 9.875 12.735-1.164 24.792-7.18 35.086-14.563 1.719-.785 1.719-.785 3.813-.539C1191 384 1191 384 1193 386v4c-20.667 12.361-42.44 21.317-66.812 15.438-17.337-5.278-30.6-17-39.274-32.678-11.686-22.51-13.712-51.664-6.28-75.822 4.352-13.36 10.483-23.885 20.366-33.938l1.934-1.973c18.891-17.87 50.837-19.478 72.066-5.027m-63.875 11.938A131 131 0 0 0 1108 272l-1.36 1.793c-7.395 10.705-9.291 23.681-11.64 36.207h86c0-17.027-2.59-33.813-14.621-46.742-7.8-7.242-17.059-9.619-27.484-9.465-10.773.77-20.55 6.19-27.77 14.144M1828 250c-.603 7.236-2.115 13.994-4 21l-3.367-.36c-9.77-.905-17.201-1.138-25.543 4.696-13.751 11.907-15.75 32.745-17.09 49.664-.343 6.342-.37 12.69-.414 19.04q-.028 2.618-.059 5.235c-.05 4.528-.09 9.055-.128 13.582-.04 4.647-.091 9.293-.141 13.94q-.143 13.601-.258 27.203c-3.812.029-7.625.047-11.437.063l-3.3.025-3.134.01-2.904.016C1754 404 1754 404 1753 403c-.099-1.96-.126-3.922-.127-5.884l-.009-3.875.007-4.292-.006-4.488q-.004-6.11 0-12.223c.003-4.254 0-8.508 0-12.763q-.004-10.718.005-21.437.007-12.41-.002-24.82-.007-10.635-.003-21.272.003-6.36-.001-12.721-.004-5.978.005-11.957 0-2.2-.002-4.401-.002-2.991.006-5.983l.001-3.39C1753 251 1753 251 1754 250a76 76 0 0 1 4.691-.098l2.577.008 3.294.028L1775 250l1 31 3.563-7.437c5.635-11.372 12.104-20.805 24.347-25.735 8.268-2.216 16.408-1.443 24.09 2.172M757 198q26.963-.035 53.927-.052 12.519-.007 25.038-.023 10.907-.015 21.814-.02 5.78 0 11.558-.01 5.433-.01 10.866-.008 2.957-.002 5.915-.011l3.523.004 3.08-.003C895 198 895 198 896 199c.125 3.5.125 3.5 0 7-1 1-1 1-3.436 1.12l-3.277-.006h-3.7l-4.028-.016-4.099-.005q-5.403-.006-10.806-.024-5.51-.014-11.02-.02-10.816-.016-21.634-.049l.003 3.058q.033 36.778.049 73.556.007 17.786.023 35.57.015 15.495.02 30.991 0 8.21.01 16.42.01 7.72.008 15.437 0 2.842.006 5.683.006 3.863.001 7.724l.01 2.302c-.016 5.145-.016 5.145-1.13 6.259-1.998.099-4 .13-6 .125l-3.312.008C821 404 821 404 820 403a177 177 0 0 1-.12-7.561l-.003-2.428c-.002-2.706.004-5.411.01-8.117l-.001-5.793q.001-7.89.013-15.78c.006-5.491.006-10.982.008-16.472q.005-15.608.021-31.216.015-17.764.022-35.528.016-36.552.05-73.105h-63z"/></svg>